<?xml version="1.0" standalone="no"?>
<!DOCTYPE svg PUBLIC "-//W3C//DTD SVG 20010904//EN"
 "http://www.w3.org/TR/2001/REC-SVG-20010904/DTD/svg10.dtd">
<svg version="1.0" xmlns="http://www.w3.org/2000/svg"
 width="333.000000pt" height="333.000000pt" viewBox="0 0 333.000000 333.000000"
 preserveAspectRatio="xMidYMid meet">
<metadata>
Created by potrace 1.11, written by Peter Selinger 2001-2013
</metadata>
<g transform="translate(0.000000,333.000000) scale(0.100000,-0.100000)"
fill="#000000" stroke="none">
<path d="M0 2535 l0 -795 466 2 467 3 106 186 c58 102 112 193 120 203 20 24
68 21 85 -6 8 -13 54 -161 102 -331 48 -169 89 -306 90 -304 5 5 62 197 128
432 34 121 63 205 73 212 24 18 57 16 76 -4 12 -14 90 -258 114 -358 3 -11 18
-63 33 -115 16 -52 31 -110 35 -127 4 -18 10 -35 14 -37 4 -3 47 136 95 307
49 172 95 320 104 330 22 24 68 22 87 -5 9 -13 63 -104 119 -203 l102 -180
457 -3 457 -2 0 795 0 795 -1665 0 -1665 0 0 -795z"/>
<path d="M1095 1788 c-44 -78 -86 -148 -93 -155 -11 -10 -111 -13 -508 -13
l-494 0 0 -810 0 -810 1665 0 1665 0 0 810 0 810 -492 2 -492 3 -85 152 c-47
84 -89 152 -93 153 -3 0 -10 -15 -13 -32 -4 -18 -41 -150 -82 -293 -41 -143
-81 -285 -89 -315 -8 -30 -22 -62 -31 -72 -19 -21 -52 -23 -76 -5 -12 8 -49
121 -108 327 -49 173 -92 316 -94 318 -2 2 -8 -13 -14 -34 -84 -304 -171 -590
-184 -605 -21 -24 -59 -25 -79 -1 -14 15 -37 78 -51 137 -3 11 -39 139 -81
284 -42 145 -76 270 -76 277 0 32 -19 6 -95 -128z"/>
</g>
</svg>
